<svg xmlns="http://www.w3.org/2000/svg"><defs><path id="l" d="M600 1533L321 329Q312 291 304 253Q296 215 296 191Q296 134 321.5 113Q347 92 404 92Q424 92 463.5 97Q503 102 523 109L508 45Q418 9 369.5 -6Q321 -21 260 -21Q180 -21 138.5 20.5Q97 62 97 123Q97 146 101.5 171Q106 196 114 234L357 1287Q364 1318 366.5 1330Q369 1342 369 1360Q369 1396 357 1415.5Q345 1435 323 1445Q302 1454 270 1457Q238 1460 205 1464L219 1525L590 1548Z"/><path id="e" d="M926 801Q926 695 859.5 619Q793 543 666 498Q573 464 478 443Q383 422 268 408Q268 250 326.5 166.5Q385 83 498 83Q598 83 674.5 133Q751 183 825 282L882 240Q802 118 682 45Q562 -28 433 -28Q256 -28 162.5 71Q69 170 69 352Q69 478 108.5 592.5Q148 707 224 802Q298 895 405.5 952Q513 1009 643 1009Q787 1009 856.5 950.5Q926 892 926 801ZM742 826Q742 865 731 887.5Q720 910 703 921Q685 933 665 936Q645 939 624 939Q504 939 402.5 807Q301 675 274 478Q344 488 432 506.5Q520 525 578 555Q661 598 701.5 665.5Q742 733 742 826Z"/><path id="a" d="M696 132L689 132Q667 114 636.5 86.5Q606 59 565 34Q526 9 480 -9.5Q434 -28 380 -28Q235 -28 152.5 76Q70 180 70 360Q70 484 116 601Q162 718 243 811Q320 900 426 954.5Q532 1009 644 1009Q715 1009 779.5 990Q844 971 881 947L1064 994L1076 979L924 334Q916 303 907.5 258.5Q899 214 899 193Q899 136 923 116Q947 96 1004 96Q1023 96 1058 102Q1093 108 1112 115L1097 51Q1007 15 963 -1Q919 -17 856 -17Q784 -17 742 25Q700 67 696 132ZM839 764Q839 797 832 827Q825 857 803 883Q783 908 748 923Q713 938 660 938Q587 938 518 890Q449 842 394 761Q342 685 309 577Q276 469 276 358Q276 297 283 250Q290 203 310 164Q329 126 365 105Q401 84 456 84Q512 84 573.5 115.5Q635 147 712 226Z"/><path id="v" d="M1039 824Q1039 672 993 515.5Q947 359 867 242Q786 121 674 45.5Q562 -30 428 -30Q297 -30 219 42.5Q141 115 141 237Q141 260 146.5 289Q152 318 154 328L241 648Q251 687 258.5 724.5Q266 762 266 790Q266 846 246.5 865Q227 884 170 884Q149 884 113 875Q77 866 59 861L74 925Q152 960 212.5 979Q273 998 309 998Q389 998 427.5 961Q466 924 466 854Q466 834 462.5 805.5Q459 777 450 743L354 370Q344 332 339 297Q334 262 334 252Q334 200 350.5 167.5Q367 135 392 117Q416 100 444.5 93Q473 86 503 86Q571 86 643.5 129Q716 172 770 241Q829 316 865 408.5Q901 501 901 613Q901 673 884.5 705.5Q868 738 848 762Q828 787 811.5 814.5Q795 842 795 892Q795 949 833 979Q871 1009 913 1009Q972 1009 1005.5 961.5Q1039 914 1039 824Z"/><path id="s" d="M362 -29Q214 -29 115.5 23.5Q17 76 17 161Q17 201 46 236Q75 271 117 271Q157 271 181.5 252.5Q206 234 220 209Q235 183 246.5 147Q258 111 266 88Q281 71 307.5 56.5Q334 42 384 42Q492 42 547.5 96Q603 150 603 242Q603 310 551 350.5Q499 391 396 425Q359 437 309 461.5Q259 486 229 514Q193 546 171 590Q149 634 149 694Q149 822 263.5 915.5Q378 1009 545 1009Q584 1009 629 1005Q674 1001 728 983Q775 967 808 935.5Q841 904 841 854Q841 813 813.5 779.5Q786 746 741 746Q704 746 680 762Q656 778 640 805Q624 832 614 863Q604 894 592 924Q573 932 558 935Q543 938 518 938Q420 938 369.5 885.5Q319 833 319 761Q319 691 364.5 655.5Q410 620 515 582Q651 533 712.5 470Q774 407 774 314Q774 162 657 66.5Q540 -29 362 -29Z"/><path id="t" d="M303 -21Q208 -21 164 17.5Q120 56 120 128Q120 151 123 171.5Q126 192 131 218L286 886L108 886L129 977L311 977L381 1270L561 1270L493 977L772 977L751 886L474 886L346 335Q337 297 331 261.5Q325 226 325 201Q325 146 352.5 120.5Q380 95 452 95Q478 95 525 101.5Q572 108 598 118L581 45Q511 18 449 -1.5Q387 -21 303 -21Z"/><path id="r" d="M954 846Q954 818 946 784.5Q938 751 923 729Q905 702 883.5 687.5Q862 673 822 673Q768 673 741 700Q714 727 714 760Q714 791 729 829.5Q744 868 760 906Q748 906 720.5 899.5Q693 893 654 874Q615 855 565.5 817Q516 779 460 716L299 0L113 0L259 648Q264 672 273.5 720Q283 768 283 791Q283 847 264 866Q245 885 188 885Q166 885 132 877.5Q98 870 79 865L94 929Q172 964 232 981Q292 998 335 998Q415 998 449 954.5Q483 911 483 824L489 824Q608 927 669.5 968Q731 1009 798 1009Q830 1009 860 1001Q890 993 911 974Q933 953 943.5 925.5Q954 898 954 846Z"/><path id="c" d="M445 -28Q270 -28 168.5 74Q67 176 67 364Q67 489 105.5 603.5Q144 718 213 807Q282 896 387.5 952.5Q493 1009 622 1009Q765 1009 839.5 948.5Q914 888 914 796Q914 727 881.5 675Q849 623 784 623Q730 623 703 650Q676 677 676 710Q676 742 698 797.5Q720 853 733 887Q722 914 684 926.5Q646 939 605 939Q469 939 370.5 780.5Q272 622 272 392Q272 250 335.5 166.5Q399 83 507 83Q604 83 679.5 135Q755 187 824 282L881 240Q812 131 693.5 51.5Q575 -28 445 -28Z"/><path id="dot" d="M400 115Q400 59 359.5 19.5Q319 -20 263 -20Q207 -20 166.5 19.5Q126 59 126 115Q126 171 166.5 211.5Q207 252 263 252Q319 252 359.5 211.5Q400 171 400 115Z"/></defs></svg>
